<?xml version="1.0" encoding="utf-8"?>

<svg version="1.1" id="Layer_1" focusable="false" xmlns="http://www.w3.org/2000/svg" xmlns:xlink="http://www.w3.org/1999/xlink"
	 x="0px" y="0px" viewBox="0 0 512 512"  xml:space="preserve">
<path stroke="black" stroke-width="10" d="M330.5,135.6c-39.8,0-72.6-26.6-122.6-26.6c-18.5,0-35.1,3.4-50.5,9.2c2.1-5.7,3-11.9,2.7-18c-1.3-21.8-18.6-39.2-39.7-40.1
	C96.5,59,77,78.6,77,102.9c0,14.6,7,27.4,17.8,35.2v295.6c0,10.1,8,18.4,17.8,18.4h11.9c9.8,0,17.8-8.2,17.8-18.4v-72.3
	c21-9.2,47.2-16.9,84.9-16.9c39.8,0,72.6,26.6,122.6,26.6c35.7,0,64.3-12.5,90.9-31.3c6.4-4.6,10.3-12.1,10.3-20.2V133.5
	c0-17.9-18-29.8-33.8-22.2C391.8,123.5,360.5,135.6,330.5,135.6z"/>
</svg>
