<?xml version="1.0" encoding="utf-8"?>

<svg version="1.1" id="Layer_1" xmlns="http://www.w3.org/2000/svg" xmlns:xlink="http://www.w3.org/1999/xlink" x="0px" y="0px"
	 viewBox="0 0 50 50" xml:space="preserve">
<path stroke="black" stroke-width="1" d="M42.74,32.7h-2.22V22.32h2.22c1.22,0,2.22-1.16,2.22-2.6s-0.99-2.6-2.22-2.6h-2.22v-5.19l-1.23-2.88
	c-0.3-0.64-0.99-0.86-1.53-0.5c-0.18,0.12-0.33,0.29-0.43,0.5l-1.24,2.88v5.19h-4.43v-5.19l-1.23-2.88c-0.3-0.64-0.99-0.86-1.53-0.5
	c-0.18,0.12-0.33,0.29-0.43,0.5l-1.24,2.88v5.19h-4.43v-5.19l-1.23-2.88c-0.3-0.64-0.99-0.86-1.53-0.5
	c-0.18,0.12-0.33,0.29-0.43,0.5l-1.24,2.88v5.19h-4.43v-5.19l-1.23-2.88c-0.3-0.64-0.99-0.86-1.53-0.5
	c-0.18,0.12-0.33,0.29-0.43,0.5l-1.24,2.88v5.19H7.26c-1.22,0-2.22,1.16-2.22,2.6s0.99,2.6,2.22,2.6h2.22V32.7H7.26
	c-1.22,0-2.22,1.16-2.22,2.6s0.99,2.6,2.22,2.6h2.22v2.6c0,1.43,0.99,2.6,2.22,2.6s2.22-1.16,2.22-2.6v-2.6h4.43v2.6
	c0,1.43,0.99,2.6,2.22,2.6c1.22,0,2.22-1.16,2.22-2.6v-2.6h4.43v2.6c0,1.43,0.99,2.6,2.22,2.6c1.22,0,2.22-1.16,2.22-2.6v-2.6h4.43
	v2.6c0,1.43,0.99,2.6,2.22,2.6s2.22-1.16,2.22-2.6v-2.6h2.22c1.22,0,2.22-1.16,2.22-2.6S43.96,32.7,42.74,32.7z M13.91,32.7V22.32
	h4.43V32.7H13.91z M22.78,32.7V22.32h4.43V32.7H22.78z M31.65,32.7V22.32h4.43V32.7H31.65z"/>
</svg>
