<?xml version="1.0" encoding="utf-8"?>

<svg version="1.1" id="Layer_1" xmlns="http://www.w3.org/2000/svg" xmlns:xlink="http://www.w3.org/1999/xlink" x="0px" y="0px"
	 viewBox="0 0 50 50" xml:space="preserve">
<path stroke="black" stroke-width="1px" d="M24.55,17.13L13.82,28.39v12.14c0,0.66,0.42,1.18,0.93,1.18l6.53-0.02c0.51,0,0.92-0.54,0.92-1.18v-7.1
	c0-0.66,0.42-1.18,0.93-1.18h3.73c0.52,0,0.93,0.53,0.93,1.18v7.09c0,0.66,0.42,1.18,0.93,1.19l0,0l6.52,0.02
	c0.52,0,0.93-0.53,0.93-1.18V28.38L25.45,17.13C25.19,16.87,24.81,16.87,24.55,17.13L24.55,17.13z M41.51,24.78l-4.87-5.1V9.41
	c0-0.49-0.31-0.89-0.7-0.89h-3.26c-0.38,0-0.7,0.4-0.7,0.89v5.38l-5.21-5.46c-1.03-1.08-2.52-1.08-3.55,0L8.48,24.78
	c-0.3,0.31-0.34,0.87-0.09,1.25l0,0l1.49,2.3c0.24,0.38,0.68,0.43,0.99,0.12l0,0l13.7-14.36c0.26-0.26,0.63-0.26,0.89,0l13.7,14.36
	c0.3,0.31,0.74,0.26,0.99-0.12l0,0l1.47-2.3C41.85,25.65,41.81,25.09,41.51,24.78L41.51,24.78L41.51,24.78z"/>
</svg>
