<?xml version="1.0" encoding="utf-8"?>

<svg version="1.1" id="Layer_1" xmlns="http://www.w3.org/2000/svg" xmlns:xlink="http://www.w3.org/1999/xlink" x="0px" y="0px"
	 viewBox="0 0 50 50" xml:space="preserve">
<path stroke="black" stroke-width="1" d="M36.84,9.33H13.16c-1.78,0-3.23,1.5-3.23,3.36v24.63c0,1.85,1.44,3.36,3.23,3.36h23.67
	c1.78,0,3.23-1.5,3.23-3.36V12.68C40.06,10.83,38.62,9.33,36.84,9.33z M26.08,29.48h-3.23v3.36c0,0.61-0.48,1.12-1.08,1.12h-2.15
	c-0.59,0-1.08-0.5-1.08-1.12V17.17c0-0.61,0.48-1.12,1.08-1.12h6.46c3.56,0,6.46,3.02,6.46,6.71S29.64,29.48,26.08,29.48z
	 M26.08,20.52h-3.23V25h3.23c1.18,0,2.15-1.01,2.15-2.24C28.23,21.53,27.26,20.52,26.08,20.52z"/>
</svg>
