<?xml version="1.0" encoding="utf-8"?>

<svg version="1.1" id="Layer_1" xmlns="http://www.w3.org/2000/svg" xmlns:xlink="http://www.w3.org/1999/xlink" x="0px" y="0px"
	 viewBox="0 0 50 50" xml:space="preserve">
<path stroke="black" stroke-width="1" class="st0" d="M30.65,22l-0.65-8.5h2.25c0.71,0,1.28-0.78,1.28-1.72V8.32c0-0.95-0.57-1.72-1.28-1.72H17.73
	c-0.71,0-1.28,0.78-1.28,1.72v3.45c0,0.95,0.57,1.72,1.28,1.72h2.25L19.33,22c-2.59,1.62-4.58,4.53-4.58,8.18
	c0,0.95,0.57,1.72,1.28,1.72h7.26v7.47c0,0.09,0.02,0.18,0.05,0.26l1.28,3.45c0.16,0.42,0.61,0.42,0.77,0l1.28-3.45
	c0.03-0.08,0.05-0.17,0.05-0.26V31.9h7.26c0.71,0,1.28-0.78,1.28-1.72C35.23,26.5,33.2,23.61,30.65,22z"/>
</svg>
