<?xml version="1.0" encoding="utf-8"?>

<svg version="1.1"  xmlns="http://www.w3.org/2000/svg" xmlns:xlink="http://www.w3.org/1999/xlink" x="0px" y="0px"
	 viewBox="0 0 50 50" xml:space="preserve">
<path stroke="black" stroke-width="1" d="M36.63,34.56l-4.89-7.06h1.87c0.55,0,1.04-0.39,1.27-1.01c0.23-0.62,0.16-1.34-0.2-1.87l-4.78-7.09h1.77
	c0.56,0,1.05-0.42,1.27-1.07c0.21-0.64,0.11-1.37-0.26-1.87l-6.74-9.17c-0.37-0.5-1.05-0.5-1.42,0l-6.74,9.17
	c-0.38,0.5-0.48,1.24-0.26,1.87c0.22,0.65,0.71,1.07,1.27,1.07h1.77l-4.78,7.08c-0.36,0.53-0.43,1.25-0.2,1.87
	c0.23,0.62,0.71,1.01,1.27,1.01h1.87l-4.89,7.06c-0.37,0.53-0.45,1.26-0.22,1.89c0.23,0.62,0.73,1.03,1.28,1.03h8.36v1.91
	l-1.85,3.78c-0.32,0.83,0.15,1.8,0.87,1.8h5.87c0.72,0,1.2-0.97,0.87-1.8l-1.85-3.78v-1.91h8.36c0.55,0,1.05-0.41,1.28-1.03
	C37.08,35.81,37,35.09,36.63,34.56z"/>
</svg>
