<?xml version="1.0" encoding="utf-8"?>

<svg version="1.1" id="Layer_1" xmlns="http://www.w3.org/2000/svg" xmlns:xlink="http://www.w3.org/1999/xlink" x="0px" y="0px"
	 viewBox="0 0 50 50" xml:space="preserve">
<path stroke="black" stroke-width="1" d="M43.96,35.88c1.2,2.07-0.31,4.66-2.69,4.66H10.12c-2.4,0-3.89-2.59-2.69-4.66L23,8.97c1.2-2.07,4.2-2.06,5.4,0
	L43.96,35.88L43.96,35.88z M25.69,30.32c-1.64,0-2.98,1.33-2.98,2.97c0,1.65,1.34,2.97,2.98,2.97c1.64,0,2.98-1.33,2.98-2.97
	C28.67,31.65,27.35,30.32,25.69,30.32z M22.86,19.63l0.49,8.79c0.02,0.41,0.37,0.73,0.78,0.73h3.15c0.42,0,0.75-0.32,0.78-0.73
	l0.49-8.79c0.02-0.44-0.33-0.81-0.78-0.81h-4.11C23.19,18.81,22.83,19.18,22.86,19.63L22.86,19.63z"/>
</svg>
