<?xml version="1.0" encoding="utf-8"?>

<svg version="1.1" id="Layer_1" xmlns="http://www.w3.org/2000/svg" xmlns:xlink="http://www.w3.org/1999/xlink" x="0px" y="0px"
	 viewBox="0 0 50 50" xml:space="preserve">
<path stroke="black" stroke-width="1" d="M26.86,8.98c-0.5-1.97-3.15-2.06-3.72,0c-2.98,10.81-9.36,13.74-9.36,21.36c0,6.74,5.02,12.2,11.22,12.2
	s11.22-5.46,11.22-12.2C36.22,22.69,29.86,19.84,26.86,8.98z M25,38.15c-3.94,0-7.14-3.44-7.14-7.68c0-0.6,0.46-1.1,1.02-1.1
	c0.56,0,1.02,0.49,1.02,1.1c0,3.03,2.28,5.48,5.1,5.48c0.56,0,1.02,0.49,1.02,1.1C26.02,37.65,25.57,38.15,25,38.15z"/>
</svg>
