<svg version="1.0" xmlns="http://www.w3.org/2000/svg"
 width="200.000000pt" height="20.000000pt" viewBox="0 0 200.000000 20.000000"
 preserveAspectRatio="xMidYMid meet">

<g transform="translate(0.000000,20.000000) scale(0.100000,-0.100000)"
 stroke="none">
<path d="M9 183 c-13 -16 -12 -17 4 -4 9 7 17 15 17 17 0 8 -8 3 -21 -13z"/>
<path d="M60 133 l-65 -68 68 65 c37 35 67 66 67 67 0 8 -10 -2 -70 -64z"/>
<path d="M125 98 l-100 -103 103 100 c95 93 107 105 99 105 -1 0 -47 -46 -102
-102z"/>
<path d="M225 98 l-100 -103 103 100 c95 93 107 105 99 105 -1 0 -47 -46 -102
-102z"/>
<path d="M325 98 l-100 -103 103 100 c95 93 107 105 99 105 -1 0 -47 -46 -102
-102z"/>
<path d="M425 98 l-100 -103 103 100 c95 93 107 105 99 105 -1 0 -47 -46 -102
-102z"/>
<path d="M525 98 l-100 -103 103 100 c95 93 107 105 99 105 -1 0 -47 -46 -102
-102z"/>
<path d="M625 98 l-100 -103 103 100 c95 93 107 105 99 105 -1 0 -47 -46 -102
-102z"/>
<path d="M725 98 l-100 -103 103 100 c95 93 107 105 99 105 -1 0 -47 -46 -102
-102z"/>
<path d="M825 98 l-100 -103 103 100 c95 93 107 105 99 105 -1 0 -47 -46 -102
-102z"/>
<path d="M925 98 l-100 -103 103 100 c95 93 107 105 99 105 -1 0 -47 -46 -102
-102z"/>
<path d="M1025 98 l-100 -103 103 100 c95 93 107 105 99 105 -1 0 -47 -46
-102 -102z"/>
<path d="M1125 98 l-100 -103 103 100 c95 93 107 105 99 105 -1 0 -47 -46
-102 -102z"/>
<path d="M1225 98 l-100 -103 103 100 c95 93 107 105 99 105 -1 0 -47 -46
-102 -102z"/>
<path d="M1325 98 l-100 -103 103 100 c56 55 102 101 102 102 0 8 -12 -4 -105
-99z"/>
<path d="M1425 98 l-100 -103 103 100 c56 55 102 101 102 102 0 8 -12 -4 -105
-99z"/>
<path d="M1525 98 l-100 -103 103 100 c56 55 102 101 102 102 0 8 -12 -4 -105
-99z"/>
<path d="M1625 98 l-100 -103 103 100 c56 55 102 101 102 102 0 8 -12 -4 -105
-99z"/>
<path d="M1725 98 l-100 -103 103 100 c95 93 107 105 99 105 -1 0 -47 -46
-102 -102z"/>
<path d="M1825 98 l-100 -103 103 100 c56 55 102 101 102 102 0 8 -12 -4 -105
-99z"/>
<path d="M1910 83 l-85 -88 88 85 c48 46 87 86 87 87 0 8 -11 -3 -90 -84z"/>
<path d="M1959 33 l-34 -38 38 34 c20 19 37 36 37 38 0 8 -8 0 -41 -34z"/>
</g>
</svg>
