<svg version="1.0" xmlns="http://www.w3.org/2000/svg"
 width="200.000000pt" height="20.000000pt" viewBox="0 0 200.000000 20.000000"
 preserveAspectRatio="xMidYMid meet">

<g transform="translate(0.000000,20.000000) scale(0.100000,-0.100000)"
stroke="none">
<path d="M51 178 c-1 -21 -7 -28 -28 -31 l-28 -4 28 -2 c25 -1 27 -4 27 -45 0
-41 -2 -45 -27 -49 l-28 -4 27 -2 c19 -1 28 -7 31 -23 l4 -23 2 23 c1 19 6 22
45 22 38 0 45 -3 49 -23 l4 -22 2 23 c1 19 6 22 45 22 38 0 45 -3 49 -22 l4
-23 2 23 c1 19 6 22 45 22 38 0 45 -3 49 -22 l4 -23 2 23 c1 19 6 22 45 22 38
0 45 -3 49 -22 l4 -23 2 23 c1 19 6 22 45 22 38 0 45 -3 49 -23 l4 -22 2 23
c1 19 6 22 45 22 38 0 45 -3 49 -22 l4 -23 2 23 c1 19 6 22 45 22 38 0 45 -3
49 -22 l4 -23 2 23 c1 19 6 22 45 22 38 0 45 -3 49 -22 l4 -23 2 23 c1 19 6
22 45 22 38 0 45 -3 49 -22 l4 -23 2 23 c1 19 6 22 45 22 38 0 45 -3 49 -22
l4 -23 2 23 c1 19 6 22 45 22 38 0 45 -3 49 -22 l4 -23 2 23 c1 19 6 22 45 22
38 0 45 -3 49 -22 l4 -23 2 23 c1 19 6 22 45 22 38 0 45 -3 49 -22 l4 -23 2
23 c1 19 6 22 45 22 38 0 45 -3 49 -23 l4 -22 2 23 c1 19 6 22 45 22 38 0 45
-3 49 -23 l4 -22 2 23 c1 19 6 22 45 22 38 0 45 -3 49 -22 l4 -23 2 23 c1 19
6 22 45 22 38 0 45 -3 49 -23 l4 -22 2 23 c1 19 6 22 45 22 38 0 45 -3 49 -22
l4 -23 2 23 c1 19 6 22 45 22 38 0 45 -3 49 -22 4 -23 4 -23 6 -1 1 14 9 23
24 26 l22 4 -22 2 c-20 1 -23 6 -23 45 0 38 3 45 23 49 22 4 22 4 0 6 -16 1
-23 9 -26 29 l-4 27 -2 -27 c-1 -26 -4 -28 -45 -28 -41 0 -45 2 -49 28 l-4 27
-2 -27 c-1 -26 -4 -28 -45 -28 -41 0 -45 2 -49 28 l-4 27 -2 -27 c-1 -26 -4
-28 -45 -28 -41 0 -45 2 -49 28 l-4 27 -2 -27 c-1 -26 -4 -28 -45 -28 -41 0
-45 2 -49 28 l-4 27 -2 -27 c-1 -26 -4 -28 -45 -28 -41 0 -45 2 -49 28 l-4 27
-2 -27 c-1 -26 -4 -28 -45 -28 -41 0 -45 2 -49 28 l-4 27 -2 -27 c-1 -26 -4
-28 -45 -28 -41 0 -45 2 -49 28 l-4 27 -2 -27 c-1 -26 -4 -28 -45 -28 -41 0
-45 2 -49 28 l-4 27 -2 -27 c-1 -26 -4 -28 -45 -28 -41 0 -45 2 -49 28 l-4 27
-2 -27 c-1 -26 -4 -28 -45 -28 -41 0 -45 2 -49 28 l-4 27 -2 -27 c-1 -26 -4
-28 -45 -28 -41 0 -45 2 -49 28 l-4 27 -2 -27 c-1 -26 -4 -28 -45 -28 -41 0
-45 2 -49 28 l-4 27 -2 -27 c-1 -26 -4 -28 -45 -28 -41 0 -45 2 -49 28 l-4 27
-2 -27 c-1 -26 -4 -28 -45 -28 -41 0 -45 2 -49 28 l-4 27 -2 -27 c-1 -26 -4
-28 -45 -28 -41 0 -45 2 -49 28 l-4 27 -2 -27 c-1 -26 -4 -28 -45 -28 -41 0
-45 2 -49 28 l-4 27 -2 -27 c-1 -26 -4 -28 -45 -28 -41 0 -45 2 -49 28 l-4 27
-2 -27 c-1 -26 -4 -28 -45 -28 -41 0 -45 2 -49 28 l-4 27 -2 -27 c-1 -26 -4
-28 -45 -28 -41 0 -45 2 -49 28 l-4 27 -2 -27z m99 -83 l0 -45 -45 0 -45 0 0
45 0 45 45 0 45 0 0 -45z m100 0 l0 -45 -45 0 -45 0 0 45 0 45 45 0 45 0 0
-45z m100 0 l0 -45 -45 0 -45 0 0 45 0 45 45 0 45 0 0 -45z m100 0 l0 -45 -45
0 -45 0 0 45 0 45 45 0 45 0 0 -45z m100 0 l0 -45 -45 0 -45 0 0 45 0 45 45 0
45 0 0 -45z m100 0 l0 -45 -45 0 -45 0 0 45 0 45 45 0 45 0 0 -45z m100 0 l0
-45 -45 0 -45 0 0 45 0 45 45 0 45 0 0 -45z m100 0 l0 -45 -45 0 -45 0 0 45 0
45 45 0 45 0 0 -45z m100 0 l0 -45 -45 0 -45 0 0 45 0 45 45 0 45 0 0 -45z
m100 0 l0 -45 -45 0 -45 0 0 45 0 45 45 0 45 0 0 -45z m100 0 l0 -45 -45 0
-45 0 0 45 0 45 45 0 45 0 0 -45z m100 0 l0 -45 -45 0 -45 0 0 45 0 45 45 0
45 0 0 -45z m100 0 l0 -45 -45 0 -45 0 0 45 0 45 45 0 45 0 0 -45z m100 0 l0
-45 -45 0 -45 0 0 45 0 45 45 0 45 0 0 -45z m100 0 l0 -45 -45 0 -45 0 0 45 0
45 45 0 45 0 0 -45z m100 0 l0 -45 -45 0 -45 0 0 45 0 45 45 0 45 0 0 -45z
m100 0 l0 -45 -45 0 -45 0 0 45 0 45 45 0 45 0 0 -45z m100 0 l0 -45 -45 0
-45 0 0 45 0 45 45 0 45 0 0 -45z m100 0 l0 -45 -45 0 -45 0 0 45 0 45 45 0
45 0 0 -45z"/>
</g>
</svg>
