<svg version="1.0" xmlns="http://www.w3.org/2000/svg"
 width="200.000000pt" height="15.000000pt" viewBox="0 0 200.000000 15.000000"
 preserveAspectRatio="xMidYMid meet">

<g transform="translate(0.000000,15.000000) scale(0.100000,-0.100000)" stroke="none">
<path d="M44 96 c-12 -31 0 -51 30 -51 36 0 56 26 37 49 -17 20 -60 21 -67 2z"/>
<path d="M351 91 c-23 -42 46 -71 72 -29 8 12 7 21 -2 32 -18 22 -58 20 -70
-3z"/>
<path d="M660 95 c-20 -24 0 -50 36 -50 26 0 29 4 29 30 0 25 -4 31 -26 33
-15 2 -31 -4 -39 -13z"/>
<path d="M969 94 c-17 -21 0 -49 31 -49 31 0 48 28 31 49 -8 9 -21 16 -31 16
-10 0 -23 -7 -31 -16z"/>
<path d="M1274 96 c-12 -31 0 -51 30 -51 36 0 56 26 37 49 -17 20 -60 21 -67
2z"/>
<path d="M1579 94 c-9 -11 -10 -20 -2 -32 14 -24 54 -27 70 -7 28 40 -36 77
-68 39z"/>
<path d="M1890 95 c-20 -24 0 -50 36 -50 26 0 29 4 29 30 0 25 -4 31 -26 33
-15 2 -31 -4 -39 -13z"/>
</g>
</svg>
