<svg version="1.0" xmlns="http://www.w3.org/2000/svg"
 width="200.000000pt" height="20.000000pt" viewBox="0 0 200.000000 20.000000"
 preserveAspectRatio="xMidYMid meet">

<g transform="translate(0.000000,20.000000) scale(0.100000,-0.100000)"
 stroke="none">
<path d="M125 100 c55 -55 102 -100 105 -100 2 0 -40 45 -95 100 -55 55 -102
100 -105 100 -2 0 40 -45 95 -100z"/>
<path d="M225 100 c55 -55 102 -100 105 -100 2 0 -40 45 -95 100 -55 55 -102
100 -105 100 -2 0 40 -45 95 -100z"/>
<path d="M325 100 c55 -55 102 -100 105 -100 2 0 -40 45 -95 100 -55 55 -102
100 -105 100 -2 0 40 -45 95 -100z"/>
<path d="M425 100 c55 -55 102 -100 105 -100 2 0 -40 45 -95 100 -55 55 -102
100 -105 100 -2 0 40 -45 95 -100z"/>
<path d="M525 100 c55 -55 102 -100 105 -100 2 0 -40 45 -95 100 -55 55 -102
100 -105 100 -2 0 40 -45 95 -100z"/>
<path d="M625 100 c55 -55 102 -100 105 -100 2 0 -40 45 -95 100 -55 55 -102
100 -105 100 -2 0 40 -45 95 -100z"/>
<path d="M725 100 c55 -55 102 -100 105 -100 2 0 -40 45 -95 100 -55 55 -102
100 -105 100 -2 0 40 -45 95 -100z"/>
<path d="M825 100 c55 -55 102 -100 105 -100 2 0 -40 45 -95 100 -55 55 -102
100 -105 100 -2 0 40 -45 95 -100z"/>
<path d="M925 100 c55 -55 102 -100 105 -100 2 0 -40 45 -95 100 -55 55 -102
100 -105 100 -2 0 40 -45 95 -100z"/>
<path d="M1025 100 c55 -55 102 -100 105 -100 2 0 -40 45 -95 100 -55 55 -102
100 -105 100 -2 0 40 -45 95 -100z"/>
<path d="M1125 100 c55 -55 102 -100 105 -100 2 0 -40 45 -95 100 -55 55 -102
100 -105 100 -2 0 40 -45 95 -100z"/>
<path d="M1225 100 c55 -55 102 -100 105 -100 2 0 -40 45 -95 100 -55 55 -102
100 -105 100 -2 0 40 -45 95 -100z"/>
<path d="M1325 100 c55 -55 102 -100 105 -100 2 0 -40 45 -95 100 -55 55 -102
100 -105 100 -2 0 40 -45 95 -100z"/>
<path d="M1425 100 c55 -55 102 -100 105 -100 2 0 -40 45 -95 100 -55 55 -102
100 -105 100 -2 0 40 -45 95 -100z"/>
<path d="M1525 100 c55 -55 102 -100 105 -100 2 0 -40 45 -95 100 -55 55 -102
100 -105 100 -2 0 40 -45 95 -100z"/>
<path d="M1625 100 c55 -55 102 -100 105 -100 2 0 -40 45 -95 100 -55 55 -102
100 -105 100 -2 0 40 -45 95 -100z"/>
<path d="M1725 100 c55 -55 102 -100 105 -100 2 0 -40 45 -95 100 -55 55 -102
100 -105 100 -2 0 40 -45 95 -100z"/>
<path d="M1825 100 c55 -55 102 -100 105 -100 2 0 -40 45 -95 100 -55 55 -102
100 -105 100 -2 0 40 -45 95 -100z"/>
<path d="M1910 115 c47 -47 87 -85 90 -85 2 0 -33 38 -80 85 -47 47 -87 85
-90 85 -2 0 33 -38 80 -85z"/>
<path d="M1960 165 c19 -19 36 -35 39 -35 3 0 -10 16 -29 35 -19 19 -36 35
-39 35 -3 0 10 -16 29 -35z"/>
<path d="M60 65 c35 -36 67 -65 69 -65 3 0 -24 29 -59 65 -35 36 -67 65 -69
65 -3 0 24 -29 59 -65z"/>
<path d="M0 26 c0 -2 8 -10 18 -17 15 -13 16 -12 3 4 -13 16 -21 21 -21 13z"/>
</g>
</svg>
