<svg version="1.0" xmlns="http://www.w3.org/2000/svg"
 width="200.000000pt" height="15.000000pt" viewBox="0 0 200.000000 15.000000"
 preserveAspectRatio="xMidYMid meet">

<g transform="translate(0.000000,15.000000) scale(0.100000,-0.100000)" stroke="none">
<path d="M44 96 c-3 -8 -4 -23 -2 -33 3 -16 17 -18 128 -21 107 -2 127 0 137
14 9 12 9 22 2 35 -9 17 -23 19 -135 19 -99 0 -126 -3 -130 -14z"/>
<path d="M390 95 c-20 -24 0 -50 36 -50 26 0 29 4 29 30 0 25 -4 31 -26 33
-15 2 -31 -4 -39 -13z"/>
<path d="M539 94 c-9 -11 -10 -20 -2 -32 8 -14 31 -17 136 -20 116 -2 126 -1
131 16 4 11 4 27 0 36 -9 24 -245 24 -265 0z"/>
<path d="M889 94 c-17 -21 0 -49 31 -49 31 0 48 28 31 49 -8 9 -21 16 -31 16
-10 0 -23 -7 -31 -16z"/>
<path d="M1035 91 c-3 -10 -3 -26 1 -35 6 -14 22 -16 132 -14 104 3 127 6 135
20 8 12 7 21 -2 32 -11 13 -36 16 -137 16 -111 0 -123 -2 -129 -19z"/>
<path d="M1384 96 c-10 -27 1 -51 26 -54 31 -5 53 23 39 49 -12 22 -57 25 -65
5z"/>
<path d="M1530 94 c-10 -11 -11 -20 -3 -32 9 -14 30 -17 139 -17 l129 0 0 30
0 30 -126 3 c-106 2 -128 0 -139 -14z"/>
<path d="M1881 92 c-13 -24 4 -52 33 -52 26 0 40 23 31 51 -8 24 -51 25 -64 1z"/>
</g>
</svg>
