<svg version="1.0" xmlns="http://www.w3.org/2000/svg"
 width="200.000000pt" height="20.000000pt" viewBox="0 0 200.000000 20.000000"
 preserveAspectRatio="xMidYMid meet">

<g transform="translate(0.000000,20.000000) scale(0.100000,-0.100000)"
stroke="none">
<path d="M0 98 c0 -56 3 -99 6 -95 9 9 10 197 2 197 -5 0 -8 -46 -8 -102z"/>
<path d="M55 182 l20 -24 -28 -24 -28 -24 28 -25 28 -25 -29 -26 c-15 -14 -26
-28 -23 -31 3 -3 17 8 31 23 l26 29 25 -28 25 -28 25 28 25 28 25 -28 25 -28
25 28 25 28 25 -28 25 -28 25 28 25 28 25 -28 25 -28 25 28 25 28 25 -28 25
-28 25 28 25 28 25 -28 25 -28 25 28 25 28 25 -28 25 -28 25 28 25 28 25 -28
25 -28 25 28 25 28 25 -28 25 -28 25 28 25 28 25 -28 25 -28 25 28 25 28 25
-28 25 -28 25 28 25 28 25 -28 25 -28 25 28 25 28 25 -28 25 -28 25 28 25 28
25 -28 25 -28 25 28 25 28 25 -28 25 -28 25 28 25 28 25 -28 25 -28 25 28 25
28 25 -28 25 -28 25 28 25 28 25 -28 25 -28 25 28 25 28 25 -28 26 -29 21 27
c11 14 26 24 32 22 6 -3 12 3 12 13 0 10 -5 16 -11 14 -6 -3 -20 4 -30 16 -18
19 -18 21 0 40 10 12 24 19 30 16 6 -2 11 4 11 14 0 10 -4 16 -9 13 -4 -3 -18
3 -30 14 l-22 18 19 -23 c20 -23 20 -23 -2 -45 l-22 -21 -22 21 c-22 22 -22
22 -2 45 l19 23 -22 -19 c-23 -19 -23 -19 -45 0 l-23 19 19 -23 c20 -23 20
-23 -2 -45 l-22 -21 -22 21 c-22 22 -22 22 -2 45 l19 23 -22 -19 c-23 -19 -23
-19 -45 0 l-23 19 19 -23 c20 -23 20 -23 -2 -45 l-22 -21 -22 21 c-22 22 -22
22 -2 45 l19 23 -22 -19 c-23 -19 -23 -19 -45 0 l-23 19 19 -23 c20 -23 20
-23 -2 -45 l-22 -21 -22 21 c-22 22 -22 22 -2 45 l19 23 -22 -19 c-23 -19 -23
-19 -45 0 l-23 19 19 -23 c20 -23 20 -23 -2 -45 l-22 -21 -22 21 c-22 22 -22
22 -2 45 l19 23 -22 -19 c-23 -19 -23 -19 -45 0 l-23 19 19 -23 c20 -23 20
-23 -2 -45 l-22 -21 -22 21 c-22 22 -22 22 -2 45 l19 23 -22 -19 c-23 -19 -23
-19 -45 0 l-23 19 19 -23 c20 -23 20 -23 -2 -45 l-22 -21 -22 21 c-22 22 -22
22 -2 45 l19 23 -22 -19 c-23 -19 -23 -19 -45 0 l-23 19 19 -23 c20 -23 20
-23 -2 -45 l-22 -21 -22 21 c-22 22 -22 22 -2 45 l19 23 -22 -19 c-23 -19 -23
-19 -45 0 l-23 19 19 -23 c20 -23 20 -23 -2 -45 l-22 -21 -22 21 c-22 22 -22
22 -2 45 l19 23 -22 -19 c-23 -19 -23 -19 -45 0 l-23 19 19 -23 c20 -23 20
-23 -2 -45 l-22 -21 -22 21 c-22 22 -22 22 -2 45 l19 23 -22 -19 c-23 -19 -23
-19 -45 0 l-23 19 19 -23 c20 -23 20 -23 -2 -45 l-22 -21 -22 21 c-22 22 -22
22 -2 45 l19 23 -22 -19 c-23 -19 -23 -19 -45 0 l-23 19 19 -23 c20 -23 20
-23 -2 -45 l-22 -21 -22 21 c-22 22 -22 22 -2 45 l19 23 -22 -19 c-23 -19 -23
-19 -45 0 l-23 19 19 -23 c20 -23 20 -23 -2 -45 l-22 -21 -22 21 c-22 22 -22
22 -2 45 l19 23 -22 -19 c-23 -19 -23 -19 -45 0 l-23 19 19 -23 c20 -23 20
-23 -2 -45 l-22 -21 -22 21 c-22 22 -22 22 -2 45 l19 23 -22 -19 c-23 -19 -23
-19 -45 0 l-23 19 19 -23 c20 -23 20 -23 -2 -45 l-22 -21 -22 21 c-22 22 -22
22 -2 45 l19 23 -22 -19 c-23 -19 -23 -19 -45 0 l-23 19 19 -23 c20 -23 20
-23 -2 -45 l-22 -21 -22 21 c-22 22 -22 22 -2 45 l19 23 -22 -19 c-23 -19 -23
-19 -45 0 l-23 19 19 -23 c20 -23 20 -23 -2 -45 l-22 -21 -22 21 c-22 22 -22
22 -2 45 l19 23 -22 -19 c-23 -19 -23 -19 -45 0 l-23 19 19 -23 c20 -23 20
-23 -2 -45 l-22 -21 -22 21 c-22 22 -22 22 -2 45 l19 23 -22 -19 c-23 -19 -23
-19 -45 0 l-23 19 19 -23 c20 -23 20 -23 -2 -45 l-22 -21 -22 21 c-22 22 -22
22 -2 45 l19 23 -22 -19 c-23 -19 -23 -19 -45 0 l-23 19 20 -23z m50 -52 c18
-20 18 -21 -3 -43 l-22 -21 -22 21 c-21 22 -21 23 -3 43 23 25 27 25 50 0z
m100 0 c18 -20 18 -21 -3 -43 l-22 -21 -22 21 c-21 22 -21 23 -3 43 10 11 21
20 25 20 4 0 15 -9 25 -20z m100 0 c18 -20 18 -21 -3 -43 l-22 -21 -22 21
c-21 22 -21 23 -3 43 10 11 21 20 25 20 4 0 15 -9 25 -20z m100 0 c18 -20 18
-21 -3 -43 l-22 -21 -22 21 c-21 22 -21 23 -3 43 10 11 21 20 25 20 4 0 15 -9
25 -20z m100 0 c18 -20 18 -21 -3 -43 l-22 -21 -22 21 c-21 22 -21 23 -3 43
10 11 21 20 25 20 4 0 15 -9 25 -20z m100 0 c18 -20 18 -21 -3 -43 l-22 -21
-22 21 c-21 22 -21 23 -3 43 10 11 21 20 25 20 4 0 15 -9 25 -20z m100 0 c18
-20 18 -21 -3 -43 l-22 -21 -22 21 c-21 22 -21 23 -3 43 10 11 21 20 25 20 4
0 15 -9 25 -20z m100 0 c18 -20 18 -21 -3 -43 l-22 -21 -22 21 c-21 22 -21 23
-3 43 10 11 21 20 25 20 4 0 15 -9 25 -20z m100 0 c18 -20 18 -21 -3 -43 l-22
-21 -22 21 c-21 22 -21 23 -3 43 10 11 21 20 25 20 4 0 15 -9 25 -20z m100 0
c18 -20 18 -21 -3 -43 l-22 -21 -22 21 c-21 22 -21 23 -3 43 10 11 21 20 25
20 4 0 15 -9 25 -20z m100 0 c18 -20 18 -21 -3 -43 l-22 -21 -22 21 c-21 22
-21 23 -3 43 10 11 21 20 25 20 4 0 15 -9 25 -20z m100 0 c18 -20 18 -21 -3
-43 l-22 -21 -22 21 c-21 22 -21 23 -3 43 10 11 21 20 25 20 4 0 15 -9 25 -20z
m100 0 c18 -20 18 -21 -3 -43 l-22 -21 -22 21 c-21 22 -21 23 -3 43 10 11 21
20 25 20 4 0 15 -9 25 -20z m100 0 c18 -20 18 -21 -3 -43 l-22 -21 -22 21
c-21 22 -21 23 -3 43 10 11 21 20 25 20 4 0 15 -9 25 -20z m100 0 c18 -20 18
-21 -3 -43 l-22 -21 -22 21 c-21 22 -21 23 -3 43 10 11 21 20 25 20 4 0 15 -9
25 -20z m100 0 c18 -20 18 -21 -3 -43 l-22 -21 -22 21 c-21 22 -21 23 -3 43
10 11 21 20 25 20 4 0 15 -9 25 -20z m100 0 c18 -20 18 -21 -3 -43 l-22 -21
-22 21 c-21 22 -21 23 -3 43 10 11 21 20 25 20 4 0 15 -9 25 -20z m100 0 c18
-20 18 -21 -3 -43 l-22 -21 -22 21 c-21 22 -21 23 -3 43 10 11 21 20 25 20 4
0 15 -9 25 -20z m100 0 c18 -20 18 -21 -3 -43 l-22 -21 -22 21 c-21 22 -21 23
-3 43 10 11 21 20 25 20 4 0 15 -9 25 -20z m-1750 -50 c18 -20 18 -21 -3 -43
l-22 -21 -22 21 c-21 22 -21 23 -3 43 10 11 21 20 25 20 4 0 15 -9 25 -20z
m100 0 c18 -20 18 -21 -3 -43 l-22 -21 -22 21 c-21 22 -21 23 -3 43 10 11 21
20 25 20 4 0 15 -9 25 -20z m100 0 c18 -20 18 -21 -3 -43 l-22 -21 -22 21
c-21 22 -21 23 -3 43 10 11 21 20 25 20 4 0 15 -9 25 -20z m100 0 c18 -20 18
-21 -3 -43 l-22 -21 -22 21 c-21 22 -21 23 -3 43 10 11 21 20 25 20 4 0 15 -9
25 -20z m100 0 c18 -20 18 -21 -3 -43 l-22 -21 -22 21 c-21 22 -21 23 -3 43
10 11 21 20 25 20 4 0 15 -9 25 -20z m100 0 c18 -20 18 -21 -3 -43 l-22 -21
-22 21 c-21 22 -21 23 -3 43 10 11 21 20 25 20 4 0 15 -9 25 -20z m100 0 c18
-20 18 -21 -3 -43 l-22 -21 -22 21 c-21 22 -21 23 -3 43 10 11 21 20 25 20 4
0 15 -9 25 -20z m100 0 c18 -20 18 -21 -3 -43 l-22 -21 -22 21 c-21 22 -21 23
-3 43 10 11 21 20 25 20 4 0 15 -9 25 -20z m100 0 c18 -20 18 -21 -3 -43 l-22
-21 -22 21 c-21 22 -21 23 -3 43 10 11 21 20 25 20 4 0 15 -9 25 -20z m100 0
c18 -20 18 -21 -3 -43 l-22 -21 -22 21 c-21 22 -21 23 -3 43 10 11 21 20 25
20 4 0 15 -9 25 -20z m100 0 c18 -20 18 -21 -3 -43 l-22 -21 -22 21 c-21 22
-21 23 -3 43 10 11 21 20 25 20 4 0 15 -9 25 -20z m100 0 c18 -20 18 -21 -3
-43 l-22 -21 -22 21 c-21 22 -21 23 -3 43 10 11 21 20 25 20 4 0 15 -9 25 -20z
m100 0 c18 -20 18 -21 -3 -43 l-22 -21 -22 21 c-21 22 -21 23 -3 43 10 11 21
20 25 20 4 0 15 -9 25 -20z m100 0 c18 -20 18 -21 -3 -43 l-22 -21 -22 21
c-21 22 -21 23 -3 43 10 11 21 20 25 20 4 0 15 -9 25 -20z m100 0 c18 -20 18
-21 -3 -43 l-22 -21 -22 21 c-21 22 -21 23 -3 43 10 11 21 20 25 20 4 0 15 -9
25 -20z m100 0 c18 -20 18 -21 -3 -43 l-22 -21 -22 21 c-21 22 -21 23 -3 43
10 11 21 20 25 20 4 0 15 -9 25 -20z m100 0 c18 -20 18 -21 -3 -43 l-22 -21
-22 21 c-21 22 -21 23 -3 43 10 11 21 20 25 20 4 0 15 -9 25 -20z m100 0 c18
-20 18 -21 -3 -43 l-22 -21 -22 21 c-21 22 -21 23 -3 43 10 11 21 20 25 20 4
0 15 -9 25 -20z m100 0 c18 -20 18 -21 -3 -43 l-22 -21 -22 21 c-21 22 -21 23
-3 43 10 11 21 20 25 20 4 0 15 -9 25 -20z"/>
</g>
</svg>
