<svg version="1.0" xmlns="http://www.w3.org/2000/svg"
 width="200.000000pt" height="15.000000pt" viewBox="0 0 200.000000 15.000000"
 preserveAspectRatio="xMidYMid meet">

<g transform="translate(0.000000,15.000000) scale(0.100000,-0.100000)" stroke="none">
<path d="M42 108 c-18 -18 -14 -46 7 -58 26 -14 506 -14 532 0 21 12 25 40 7
58 -17 17 -529 17 -546 0z"/>
<path d="M820 101 c-7 -15 -5 -24 8 -41 16 -19 22 -21 40 -11 26 14 30 56 6
65 -27 10 -43 7 -54 -13z"/>
<path d="M1123 113 c-20 -7 -15 -51 6 -63 12 -6 116 -10 270 -10 214 0 252 2
265 16 9 8 16 21 16 28 0 33 -22 36 -284 35 -144 0 -267 -3 -273 -6z"/>
<path d="M1899 99 c-9 -18 -7 -25 9 -41 16 -16 23 -18 41 -9 23 13 28 40 9 59
-19 19 -46 14 -59 -9z"/>
</g>
</svg>
