<?xml version="1.0" encoding="utf-8"?>
<svg version="1.1" id="Layer_1" xmlns="http://www.w3.org/2000/svg" xmlns:xlink="http://www.w3.org/1999/xlink" x="0px" y="0px"
	 viewBox="0 0 50 50" style="enable-background:new 0 0 50 50;" xml:space="preserve">
<g>
	<path d="M18,38V16.2h-7.3v-2.9h17.6v2.9H21V38H18z"/>
	<path d="M37,35.3l0.4,2.7c-0.7,0.2-1.4,0.3-2,0.3c-0.9,0-1.7-0.2-2.3-0.5s-1-0.8-1.2-1.4c-0.2-0.6-0.3-1.8-0.3-3.6V22.5h-2v-2.4h2
		v-4.4l2.7-1.8v6.3H37v2.4h-2.7V33c0,1,0.1,1.6,0.2,1.9c0.2,0.4,0.7,0.6,1.3,0.6C36.1,35.4,36.5,35.4,37,35.3z"/>
</g>
</svg>
