
<svg version="1.0" xmlns="http://www.w3.org/2000/svg"
 width="200.000000pt" height="15.000000pt" viewBox="0 0 200.000000 15.000000"
 preserveAspectRatio="xMidYMid meet">

<g transform="translate(0.000000,15.000000) scale(0.100000,-0.100000)" stroke="none">
<path d="M41 106 c-7 -8 -11 -25 -9 -38 l3 -23 259 0 c236 0 260 2 270 17 8
13 8 23 0 35 -10 16 -36 18 -261 21 -210 2 -252 0 -262 -12z"/>
<path d="M792 111 c-8 -4 -12 -21 -10 -37 l3 -29 259 0 c236 0 260 2 270 17 8
13 8 23 0 35 -10 16 -35 18 -260 20 -137 2 -255 -1 -262 -6z"/>
<path d="M1544 112 c-17 -11 -22 -35 -12 -55 8 -15 29 -17 213 -17 192 0 205
1 215 19 13 25 13 27 -6 45 -13 13 -46 16 -207 16 -106 0 -197 -4 -203 -8z"/>
</g>
</svg>
