<svg version="1.0" xmlns="http://www.w3.org/2000/svg"
 width="200.000000pt" height="15.000000pt" viewBox="0 0 200.000000 15.000000"
 preserveAspectRatio="xMidYMid meet">

<g transform="translate(0.000000,15.000000) scale(0.100000,-0.100000)" stroke="none">
<path d="M33 94 c-3 -9 -2 -24 4 -33 15 -24 261 -24 276 0 6 9 7 24 4 33 -5
14 -26 16 -142 16 -116 0 -137 -2 -142 -16z"/>
<path d="M547 103 c-12 -11 -8 -40 7 -52 18 -15 63 -4 70 16 4 9 1 22 -5 29
-12 14 -60 19 -72 7z"/>
<path d="M844 88 c-12 -38 18 -48 147 -48 94 0 121 3 133 16 19 19 20 26 4 42
-8 8 -55 12 -144 12 -127 0 -133 -1 -140 -22z"/>
<path d="M1354 88 c-13 -41 55 -65 79 -27 17 28 1 49 -37 49 -27 0 -36 -5 -42
-22z"/>
<path d="M1661 96 c-15 -18 -4 -45 23 -51 11 -3 72 -4 135 -3 92 2 116 6 124
19 6 9 7 24 4 33 -5 14 -26 16 -140 16 -102 0 -137 -3 -146 -14z"/>
</g>
</svg>
