
<svg version="1.0" xmlns="http://www.w3.org/2000/svg"
 width="200.000000pt" height="15.000000pt" viewBox="0 0 200.000000 15.000000"
 preserveAspectRatio="xMidYMid meet">

<g transform="translate(0.000000,15.000000) scale(0.100000,-0.100000)" stroke="none">
<path d="M43 103 c-7 -2 -13 -15 -13 -29 0 -32 19 -35 159 -32 93 2 116 6 124
20 8 12 7 21 -2 32 -11 13 -36 16 -135 15 -66 0 -127 -3 -133 -6z"/>
<path d="M413 103 c-7 -2 -13 -15 -13 -28 0 -31 36 -43 58 -21 27 27 -8 65
-45 49z"/>
<path d="M560 95 c-18 -22 -1 -50 31 -50 20 0 24 5 24 30 0 23 -5 31 -21 33
-11 2 -27 -4 -34 -13z"/>
<path d="M710 94 c-10 -11 -11 -20 -3 -32 9 -14 30 -17 139 -17 l129 0 0 30 0
30 -126 3 c-106 2 -128 0 -139 -14z"/>
<path d="M1069 94 c-17 -21 0 -49 31 -49 31 0 48 28 31 49 -8 9 -21 16 -31 16
-10 0 -23 -7 -31 -16z"/>
<path d="M1224 96 c-11 -28 1 -51 25 -51 32 0 49 28 32 49 -17 20 -50 21 -57
2z"/>
<path d="M1379 94 c-9 -11 -10 -20 -2 -32 15 -25 261 -25 276 0 8 12 7 21 -2
32 -20 23 -252 23 -272 0z"/>
<path d="M1742 98 c-28 -28 1 -64 43 -54 18 5 25 13 25 30 0 33 -43 49 -68 24z"/>
<path d="M1889 94 c-9 -11 -10 -20 -2 -32 14 -24 54 -27 70 -7 28 40 -36 77
-68 39z"/>
</g>
</svg>
