<svg version="1.0" xmlns="http://www.w3.org/2000/svg"
 width="200.000000pt" height="15.000000pt" viewBox="0 0 200.000000 15.000000"
 preserveAspectRatio="xMidYMid meet">

<g transform="translate(0.000000,15.000000) scale(0.100000,-0.100000)"
 stroke="none">
<path d="M88 103 c-27 -7 -23 -49 5 -57 30 -8 216 -6 247 3 16 4 25 14 25 26
0 12 -9 22 -25 26 -28 8 -225 9 -252 2z"/>
<path d="M608 103 c-27 -7 -23 -49 5 -57 36 -9 213 -7 241 4 14 5 26 16 26 25
0 9 -12 20 -26 25 -25 10 -212 12 -246 3z"/>
<path d="M1118 103 c-27 -7 -23 -49 5 -57 36 -9 213 -7 241 4 14 5 26 16 26
25 0 9 -12 20 -26 25 -25 10 -212 12 -246 3z"/>
<path d="M1628 103 c-27 -7 -23 -49 5 -57 12 -3 70 -6 129 -6 106 0 158 12
158 35 0 24 -52 35 -163 34 -62 -1 -120 -3 -129 -6z"/>
</g>
</svg>
