<svg version="1.0" xmlns="http://www.w3.org/2000/svg"
 width="200.000000pt" height="15.000000pt" viewBox="0 0 200.000000 15.000000"
 preserveAspectRatio="xMidYMid meet">

<g transform="translate(0.000000,15.000000) scale(0.100000,-0.100000)" stroke="none">
<path d="M33 94 c-3 -9 -2 -24 4 -33 15 -24 241 -24 256 0 6 9 7 24 4 33 -5
14 -25 16 -132 16 -107 0 -127 -2 -132 -16z"/>
<path d="M373 94 c-3 -9 -2 -24 4 -33 15 -24 241 -24 256 0 6 9 7 24 4 33 -10
24 -254 24 -264 0z"/>
<path d="M715 90 c-13 -41 9 -50 129 -50 61 0 117 4 124 9 8 4 12 19 10 32 -3
24 -5 24 -130 27 -120 2 -127 2 -133 -18z"/>
<path d="M1053 94 c-15 -39 9 -49 118 -52 134 -4 151 1 147 36 l-3 27 -128 3
c-111 2 -128 0 -134 -14z"/>
<path d="M1402 98 c-16 -16 -15 -23 4 -42 23 -23 225 -23 248 0 19 19 20 26 4
42 -17 17 -239 17 -256 0z"/>
<path d="M1742 98 c-16 -16 -15 -23 4 -42 12 -12 36 -16 102 -16 98 0 115 7
110 41 -3 23 -6 24 -103 27 -70 2 -104 -1 -113 -10z"/>
</g>
</svg>
